<?xml version="1.0" encoding="utf-8"?>
<!-- Generator: Adobe Illustrator 15.0.0, SVG Export Plug-In . SVG Version: 6.00 Build 0)  -->
<!DOCTYPE svg PUBLIC "-//W3C//DTD SVG 1.1//EN" "http://www.w3.org/Graphics/SVG/1.1/DTD/svg11.dtd">
<svg version="1.1" id="Layer_1" xmlns="http://www.w3.org/2000/svg" xmlns:xlink="http://www.w3.org/1999/xlink" x="0px" y="0px"
	 width="511.638px" height="111.391px" viewBox="0 0 511.638 111.391" enable-background="new 0 0 511.638 111.391"
	 xml:space="preserve">
<g>
	<path fill="#F7941D" d="M181.472,21.686c0-9.435-10.768-19.776-33.998-19.776c-4.275,0-8.572,0.917-12.893,2.752
		c-4.321,1.837-7.991,4.403-11.01,7.701c-3.253,3.532-5.819,7.725-7.701,12.579c-1.882,4.855-2.823,10.628-2.823,17.318
		c0,12.22,2.729,21.686,8.188,28.397c5.458,6.716,12.833,10.07,22.126,10.07c5.576,0,10.163-0.777,13.763-2.334
		c3.019-1.305,6.16-3.172,9.424-5.604c0.629-0.469,1.901-2.073,1.901,1.203c0,1.348,0,4.437,0,4.437c0,3.16-0.348,6.016-1.045,8.571
		c-0.697,2.555-1.859,4.739-3.484,6.551c-1.627,1.905-3.903,3.392-6.83,4.461c-2.927,1.067-6.62,1.602-11.08,1.602
		c-4.647,0-9.293-0.616-13.938-1.847c-4.646-1.23-6.95-1.969-9.1-2.601c-2.889-0.85-6.16,1.36-6.415,4.971
		c-0.255,3.611,1.614,6.288,6.5,8.369c2.294,0.893,5.82,1.433,9.747,2.014c3.926,0.581,7.956,0.871,12.091,0.871
		c12.451,0,21.674-3.09,27.667-9.268c5.993-6.18,8.99-15.867,8.99-29.062C181.552,73.062,181.472,23.896,181.472,21.686z
		 M146.414,70.416c-12.122,0-21.948-12.756-21.948-28.491c0-15.734,9.827-28.489,21.948-28.489c13.902,0,22.037,6.184,22.037,11.063
		c0,1.407,0.008,25.122,0.008,33.612C168.458,62.588,153.976,70.416,146.414,70.416z"/>
	<path fill="#F7941D" d="M245.777,14.799c-2.021-0.245-4.414-0.345-7.178-0.345c-4.453,0-8.752,0.987-12.898,2.954
		c-3.362,1.599-11.977,6.768-11.977,11.151c0,11.422,0,46.94,0,49.691c0,3.282-2.862,7.728-7.232,7.728
		c-4.371,0-7.201-3.56-7.201-7.728s0-71.19,0-72.514c0-2.823,3.83-5.562,7.564-5.562s6.869,3.21,6.869,5.562
		c0,0.736,0,3.401,0,4.757c0,0.919-0.017,0.801,0.819,0.166c6-4.561,17.54-10.485,27.741-10.485c2.507,0,4.334-0.002,5.452,0.192
		c3.443,0.597,4.588,4.221,4.224,7.801C251.586,11.831,249.257,15.223,245.777,14.799z"/>
	<path fill="#F7941D" d="M429.398,6.708c-0.648,1.86-27.649,68.499-28.72,71.09c-1.425,3.445-3.574,7.79-9.871,7.79
		c-5.552,0-9.233-3.979-10.74-7.79c-1.026-2.595-27.703-68.581-28.542-71.044c-1.154-3.384,2.594-6.624,6.285-6.624
		c5.785,0,7.89,3.233,9.207,6.62c1.199,3.08,19.931,51.208,23.323,59.926c0.467,1.099,0.386,1.651,1.057-0.041
		c3.381-8.817,21.771-56.777,23.117-59.927c1.483-3.47,3.981-6.578,9.811-6.578C428.697,0.13,430.293,4.141,429.398,6.708z"/>
	<path fill="#F7941D" d="M506.304,45.205c-1.048,0-44.516,0-53.185,0c-1.588,0-1.345,0-1.345,1.206
		c0,4.497,0.857,8.446,2.239,11.854c1.504,3.711,3.565,6.755,6.185,9.131c2.521,2.329,5.517,4.073,8.985,5.237
		c3.467,1.167,7.287,1.747,11.458,1.747c5.53,0,11.132-1.01,16.698-3.312c4.53-1.871,11.098-3.451,12.618,1.431
		c1.321,4.236-0.385,6.821-3.149,8.274c-2.359,1.241-6.086,2.265-10.888,3.574c-4.803,1.309-9.847,1.964-15.134,1.964
		c-13.483,0-24.008-3.649-31.575-10.948c-7.565-7.301-11.35-17.668-11.35-31.104c0-13.288,3.625-23.837,10.877-31.647
		c7.251-7.809,16.794-11.714,28.63-11.714c10.96,0,19.412,3.201,25.354,9.604c5.94,6.402,8.912,15.495,8.912,27.282
		c0,0,0.091,3.403-1.098,5.259S506.88,45.205,506.304,45.205z M498.267,32.837c-0.333-6.268-2.121-11.192-5.365-14.767
		c-3.564-3.931-8.985-5.896-16.262-5.896c-7.323,0-13.156,2.16-17.496,6.477c-4.166,4.143-6.6,9.244-7.305,15.307
		c-0.03,0.256-0.14,0.772,0.753,0.772c6.085,0,43.499,0,44.701,0C498.604,34.73,498.299,33.455,498.267,32.837z"/>
	<path fill="#F7941D" d="M301.078,1.645c-23.206,0-42.02,18.813-42.02,42.02c0,23.207,18.813,42.02,42.02,42.02
		s42.02-18.812,42.02-42.02C343.097,20.458,324.284,1.645,301.078,1.645z M301.078,72.814c-16.1,0-29.15-13.052-29.15-29.15
		s13.051-29.15,29.15-29.15c16.099,0,29.15,13.052,29.15,29.15S317.176,72.814,301.078,72.814z"/>
	<path fill="#F7941D" d="M77.313,0.021L9.479,0C4.353,0,0,2.719,0,8.333v69.438c0,4.275,3.717,7.632,8.261,7.632l32.329-0.054
		c4.544,0,8.262-3.374,8.262-7.649V63.022c0.124-0.075,0.252-0.142,0.371-0.23l9.972-7.449c2.151-1.592,2.605-4.627,1.013-6.779
		c-1.592-2.15-4.627-2.605-6.779-1.012l-4.576,3.456v-3.405v-3.264c3.568-1.749,6.031-5.406,6.031-9.648
		c0-5.936-4.812-10.749-10.749-10.749c-5.937,0-10.75,4.813-10.75,10.749c0,3.906,2.09,7.315,5.206,9.197v14.02l-0.001,0.308
		l-4.724-2.843c-2.294-1.381-5.271-0.64-6.652,1.654s-0.64,5.271,1.654,6.651l9.723,5.852v3.689l-26.486,0.072V11.796l61.653,0.042
		l-0.082,61.396c0,0-8.08-0.028-10.314-0.028c-0.57,0-1.088,0.071-1.567,0.188c-2.897,0.44-5.123,2.264-5.123,6.292
		c0,3.987,3.493,5.678,5.57,5.678c1.623,0,15.073-0.015,15.073-0.015c4.544,0,8.261-3.107,8.261-7.384V7.797
		C85.575,3.521,81.857,0.021,77.313,0.021z"/>
</g>
</svg>
